<?xml version="1.0" encoding="utf-8"?>

<!-- Uploaded to: SVG Repo, www.svgrepo.com, Generator: SVG Repo Mixer Tools -->
<svg fill="#000000" height="800px" width="800px" version="1.1" id="Icons" xmlns="http://www.w3.org/2000/svg" xmlns:xlink="http://www.w3.org/1999/xlink" 
	 viewBox="0 0 32 32" xml:space="preserve">
<path d="M16,2C8.3,2,2,8.3,2,16s6.3,14,14,14s14-6.3,14-14S23.7,2,16,2z M20.7,18.7l-4,4c-0.1,0.1-0.2,0.2-0.3,0.2
	C16.3,23,16.1,23,16,23s-0.3,0-0.4-0.1c-0.1-0.1-0.2-0.1-0.3-0.2l-4-4c-0.4-0.4-0.4-1,0-1.4s1-0.4,1.4,0l2.3,2.3V9c0-0.6,0.4-1,1-1
	s1,0.4,1,1v10.6l2.3-2.3c0.4-0.4,1-0.4,1.4,0S21.1,18.3,20.7,18.7z"/>
</svg>